<svg viewBox="0 0 30 30" fill="none" xmlns="http://www.w3.org/2000/svg"><path d="M23.754 21.824l-3.516-3.515a.814.814 0 0 0-.597-.247h-.563c1.031-1.312 1.547-2.812 1.547-4.5 0-1.335-.328-2.554-.984-3.656a7.303 7.303 0 0 0-2.672-2.672c-1.102-.656-2.32-.984-3.657-.984a7.196 7.196 0 0 0-3.69.984 7.39 7.39 0 0 0-2.638 2.672C6.328 11.008 6 12.226 6 13.562c0 1.336.328 2.567.984 3.692a7.477 7.477 0 0 0 2.637 2.637 7.195 7.195 0 0 0 3.691.984c1.688 0 3.188-.516 4.5-1.547v.563c0 .234.082.433.247.597l3.515 3.516a.814.814 0 0 0 .598.246.813.813 0 0 0 .598-.246l.984-.985a.813.813 0 0 0 .246-.597.814.814 0 0 0-.246-.598zm-10.442-3.762c-.82 0-1.582-.199-2.285-.597a4.459 4.459 0 0 1-1.617-1.617 4.558 4.558 0 0 1-.598-2.286c0-.82.2-1.57.598-2.25a4.38 4.38 0 0 1 1.617-1.652 4.558 4.558 0 0 1 2.286-.598c.82 0 1.57.2 2.25.598.703.399 1.253.95 1.652 1.652.398.68.598 1.43.598 2.25 0 .82-.2 1.583-.598 2.286a4.38 4.38 0 0 1-1.652 1.617c-.68.398-1.43.598-2.25.598z" fill="#EB4900"/></svg>
