<svg width="100" height="100" viewBox="0 0 100 100" fill="none" xmlns="http://www.w3.org/2000/svg">
<path d="M17.0071 41.2041C14.0289 32.1939 17.0313 19.4273 23.7132 12.6889L27.9759 8.39017C32.3035 4.02596 37.3755 5.21874 39.3043 11.0543C41.2332 16.8899 39.2887 25.1584 34.9611 29.5227L18.5997 46.0223L17.0071 41.2041Z" fill="#265AD3"/>
<path d="M39.76 59.284C42.7382 68.2941 39.7358 81.0608 33.054 87.7991L28.7912 92.0979C24.4636 96.4621 19.3917 95.2693 17.4628 89.4337C15.5339 83.5981 17.4785 75.3296 21.8061 70.9654L38.1674 54.4658L39.76 59.284Z" fill="#265AD3"/>
<path d="M35.4711 46.3087C36.9602 50.8137 35.459 57.1971 32.1181 60.5662C28.7771 63.9354 24.8616 63.0146 23.3725 58.5095L21.7799 53.6913C20.2908 49.1863 21.792 42.8029 25.1329 39.4338C28.4739 36.0646 32.3894 36.9854 33.8785 41.4905L35.4711 46.3087Z" fill="#265AD3"/>
<path d="M35.7638 35.3825C35.7638 28.6441 41.2263 23.1816 47.9646 23.1816H51.5034C58.2417 23.1816 63.7042 28.6441 63.7042 35.3825C63.7042 42.1208 58.2417 47.5833 51.5034 47.5833H47.9646C41.2263 47.5833 35.7638 42.1208 35.7638 35.3825Z" fill="#EC146B"/>
<ellipse cx="49.734" cy="59.7842" rx="6.98513" ry="12.2008" fill="#EC146B"/>
<ellipse cx="49.734" cy="84.1858" rx="6.98513" ry="12.2008" fill="#EC146B"/>
<path d="M60.2117 10.5662C62.1406 4.73067 67.2125 3.53788 71.5401 7.90209L75.8029 12.2008C82.4847 18.9392 85.4871 31.7058 82.5089 40.716L80.9163 45.5342L64.555 29.0346C60.2274 24.6704 58.2828 16.4018 60.2117 10.5662Z" fill="#265AD3"/>
<path d="M61.8326 54.4658L78.1939 70.9654C82.5215 75.3296 84.4661 83.5982 82.5372 89.4338C80.6083 95.2693 75.5364 96.4621 71.2088 92.0979L66.946 87.7992C60.2642 81.0608 57.2618 68.2941 60.24 59.284L61.8326 54.4658Z" fill="#265AD3"/>
<path d="M66.1215 41.4905C67.6106 36.9855 71.5261 36.0646 74.867 39.4338C78.208 42.803 79.7092 49.1863 78.2201 53.6914L76.6275 58.5096C75.1384 63.0146 71.2228 63.9355 67.8819 60.5663C64.541 57.1971 63.0398 50.8138 64.5289 46.3087L66.1215 41.4905Z" fill="#265AD3"/>
</svg>

